<svg width="143" height="60" viewBox="0 0 143 60" fill="none" xmlns="http://www.w3.org/2000/svg">
<path d="M0.72 6.74C0.952 6.636 1.188 6.56 1.428 6.512C1.668 6.464 1.904 6.44 2.136 6.44C2.56 6.44 2.872 6.54 3.072 6.74C3.272 6.94 3.416 7.3 3.504 7.82L5.016 15.956C5.088 16.372 5.172 16.872 5.268 17.456C5.364 18.032 5.46 18.608 5.556 19.184C5.652 19.752 5.728 20.228 5.784 20.612C5.8 20.748 5.82 20.828 5.844 20.852C5.876 20.876 5.924 20.888 5.988 20.888L8.604 6.956C8.852 6.908 9.132 6.876 9.444 6.86C9.756 6.844 10.028 6.836 10.26 6.836C10.516 6.836 10.8 6.844 11.112 6.86C11.432 6.876 11.696 6.908 11.904 6.956L14.304 20.612C14.328 20.74 14.356 20.82 14.388 20.852C14.42 20.876 14.468 20.888 14.532 20.888C14.604 20.392 14.688 19.84 14.784 19.232C14.888 18.624 14.992 18.028 15.096 17.444C15.208 16.86 15.304 16.356 15.384 15.932L17.232 6.608C17.408 6.568 17.596 6.544 17.796 6.536C18.004 6.52 18.2 6.512 18.384 6.512C18.584 6.512 18.792 6.524 19.008 6.548C19.224 6.572 19.424 6.608 19.608 6.656L19.74 6.836L16.296 22.976C15.992 23.024 15.616 23.056 15.168 23.072C14.728 23.096 14.344 23.108 14.016 23.108C13.632 23.108 13.296 23.04 13.008 22.904C12.72 22.76 12.532 22.416 12.444 21.872L11.28 15.44C11.152 14.648 10.996 13.72 10.812 12.656C10.636 11.584 10.468 10.536 10.308 9.512H10.152C9.984 10.536 9.804 11.58 9.612 12.644C9.428 13.708 9.256 14.64 9.096 15.44L7.62 22.988C7.316 23.028 6.956 23.056 6.54 23.072C6.132 23.096 5.764 23.108 5.436 23.108C5.036 23.108 4.68 23.036 4.368 22.892C4.056 22.748 3.844 22.4 3.732 21.848L0.72 6.74ZM24.7221 23C24.3861 23.064 23.9741 23.096 23.4861 23.096C23.0461 23.096 22.6461 23.064 22.2861 23V5.504L22.4421 5.348H23.3781C23.8981 5.348 24.2501 5.476 24.4341 5.732C24.6261 5.98 24.7221 6.38 24.7221 6.932V23ZM31.6941 20.468C31.6941 20.884 31.7221 21.28 31.7781 21.656C31.8341 22.024 31.9381 22.348 32.0901 22.628C31.9061 22.78 31.6741 22.904 31.3941 23C31.1221 23.104 30.8341 23.156 30.5301 23.156C30.0501 23.156 29.7101 23.024 29.5101 22.76C29.3181 22.496 29.2221 22.104 29.2221 21.584V15.488C29.2221 14.688 29.1181 14.104 28.9101 13.736C28.7021 13.368 28.3061 13.184 27.7221 13.184C27.3221 13.184 26.8861 13.284 26.4141 13.484C25.9501 13.676 25.5101 13.948 25.0941 14.3C24.6781 14.652 24.3421 15.068 24.0861 15.548V13.16C24.6221 12.544 25.2781 12.024 26.0541 11.6C26.8301 11.168 27.6501 10.952 28.5141 10.952C29.2661 10.952 29.8741 11.128 30.3381 11.48C30.8021 11.824 31.1421 12.296 31.3581 12.896C31.5821 13.488 31.6941 14.152 31.6941 14.888V20.468ZM34.5128 19.784C34.5128 18.864 34.7128 18.112 35.1128 17.528C35.5208 16.936 36.0688 16.5 36.7568 16.22C37.4528 15.94 38.2368 15.8 39.1088 15.8C39.5488 15.8 40.0528 15.82 40.6208 15.86C41.1888 15.9 41.7168 15.976 42.2048 16.088V17.756C41.7728 17.652 41.2888 17.588 40.7528 17.564C40.2248 17.532 39.7288 17.516 39.2648 17.516C38.5368 17.516 37.9728 17.704 37.5728 18.08C37.1728 18.448 36.9728 18.956 36.9728 19.604C36.9728 20.092 37.1128 20.508 37.3928 20.852C37.6728 21.188 38.0728 21.356 38.5928 21.356C39.1768 21.356 39.7928 21.152 40.4408 20.744C41.0888 20.336 41.6368 19.736 42.0848 18.944L42.4688 20.84C42.1808 21.176 41.8248 21.536 41.4008 21.92C40.9768 22.304 40.4848 22.632 39.9248 22.904C39.3728 23.176 38.7448 23.312 38.0408 23.312C37.2488 23.312 36.5888 23.136 36.0608 22.784C35.5408 22.432 35.1528 21.988 34.8968 21.452C34.6408 20.908 34.5128 20.352 34.5128 19.784ZM44.5208 21.896C44.4648 22.12 44.3448 22.36 44.1608 22.616C43.9848 22.864 43.7968 23.052 43.5968 23.18C43.0928 23.076 42.6848 22.888 42.3728 22.616C42.0608 22.344 41.8288 22.02 41.6768 21.644C41.5248 21.26 41.4328 20.856 41.4008 20.432V15.02C41.4008 14.268 41.2288 13.728 40.8848 13.4C40.5488 13.064 40.0688 12.896 39.4448 12.896C38.8448 12.896 38.2248 12.988 37.5848 13.172C36.9448 13.356 36.3048 13.572 35.6648 13.82C35.4728 13.62 35.3088 13.348 35.1728 13.004C35.0448 12.652 34.9728 12.316 34.9568 11.996C35.4048 11.804 35.9088 11.624 36.4688 11.456C37.0368 11.288 37.6208 11.156 38.2208 11.06C38.8208 10.956 39.3928 10.904 39.9368 10.904C40.7288 10.904 41.4168 11.048 42.0008 11.336C42.5848 11.624 43.0368 12.064 43.3568 12.656C43.6848 13.248 43.8488 14.004 43.8488 14.924V19.844C43.8488 20.292 43.8928 20.688 43.9808 21.032C44.0688 21.368 44.2488 21.656 44.5208 21.896ZM47.691 9.056C47.691 8.504 47.783 8.104 47.967 7.856C48.151 7.6 48.503 7.472 49.023 7.472H49.959L50.115 7.64V20.096C50.115 20.416 50.191 20.672 50.343 20.864C50.495 21.048 50.751 21.14 51.111 21.14H52.767C52.895 21.516 52.959 21.932 52.959 22.388C52.959 22.476 52.955 22.568 52.947 22.664C52.947 22.76 52.935 22.848 52.911 22.928C52.511 22.976 52.083 23.016 51.627 23.048C51.171 23.088 50.707 23.108 50.235 23.108C49.419 23.108 48.791 22.904 48.351 22.496C47.911 22.08 47.691 21.46 47.691 20.636V9.056ZM53.079 11.132C53.159 11.428 53.199 11.728 53.199 12.032C53.199 12.368 53.159 12.676 53.079 12.956L49.155 12.908L45.927 12.956C45.863 12.66 45.831 12.352 45.831 12.032C45.831 11.744 45.863 11.444 45.927 11.132L49.191 11.18L53.079 11.132ZM54.8691 6.116C54.8691 5.924 54.8811 5.736 54.9051 5.552C54.9371 5.36 54.9771 5.164 55.0251 4.964C55.1771 4.876 55.3531 4.804 55.5531 4.748C55.7531 4.684 55.9771 4.652 56.2251 4.652C56.4571 4.652 56.6771 4.684 56.8851 4.748C57.1011 4.804 57.2851 4.876 57.4371 4.964C57.4771 5.164 57.5091 5.36 57.5331 5.552C57.5571 5.736 57.5691 5.924 57.5691 6.116C57.5691 6.244 57.5371 6.568 57.4731 7.088C57.4091 7.6 57.3211 8.22 57.2091 8.948C57.1051 9.668 56.9891 10.416 56.8611 11.192C56.7171 11.28 56.5091 11.324 56.2371 11.324C55.9651 11.324 55.7531 11.28 55.6011 11.192C55.4731 10.408 55.3531 9.656 55.2411 8.936C55.1291 8.208 55.0371 7.588 54.9651 7.076C54.9011 6.564 54.8691 6.244 54.8691 6.116ZM59.5956 22.112C59.6116 21.84 59.6996 21.536 59.8596 21.2C60.0196 20.856 60.2036 20.584 60.4116 20.384C60.9156 20.656 61.4556 20.904 62.0316 21.128C62.6076 21.344 63.1916 21.452 63.7836 21.452C64.4396 21.452 64.9596 21.312 65.3436 21.032C65.7276 20.752 65.9236 20.392 65.9316 19.952C65.9316 19.616 65.8036 19.304 65.5476 19.016C65.2916 18.728 64.9156 18.496 64.4196 18.32L63.0276 17.804C62.4756 17.604 61.9676 17.352 61.5036 17.048C61.0476 16.744 60.6796 16.376 60.3996 15.944C60.1196 15.504 59.9796 14.984 59.9796 14.384C59.9796 13.648 60.1636 13.016 60.5316 12.488C60.9076 11.96 61.4156 11.556 62.0556 11.276C62.7036 10.988 63.4276 10.844 64.2276 10.844C64.8756 10.844 65.5636 10.928 66.2916 11.096C67.0276 11.264 67.6436 11.468 68.1396 11.708C68.1476 11.908 68.1236 12.128 68.0676 12.368C68.0116 12.6 67.9236 12.82 67.8036 13.028C67.6916 13.228 67.5636 13.396 67.4196 13.532C66.9956 13.332 66.5036 13.152 65.9436 12.992C65.3836 12.824 64.8036 12.74 64.2036 12.74C63.6836 12.74 63.2676 12.868 62.9556 13.124C62.6436 13.372 62.4876 13.708 62.4876 14.132C62.4876 14.468 62.6076 14.748 62.8476 14.972C63.0956 15.196 63.4676 15.4 63.9636 15.584L65.4396 16.124C66.3436 16.452 67.0756 16.904 67.6356 17.48C68.2036 18.056 68.4876 18.808 68.4876 19.736C68.4876 20.848 68.0556 21.724 67.1916 22.364C66.3276 22.996 65.1916 23.312 63.7836 23.312C62.9436 23.312 62.1636 23.192 61.4436 22.952C60.7316 22.712 60.1156 22.432 59.5956 22.112Z" fill="white"/>
<path d="M39.316 24.056C39.316 23.504 39.408 23.104 39.592 22.856C39.776 22.6 40.128 22.472 40.648 22.472H41.584L41.74 22.64V35.096C41.74 35.416 41.816 35.672 41.968 35.864C42.12 36.048 42.376 36.14 42.736 36.14H44.392C44.52 36.516 44.584 36.932 44.584 37.388C44.584 37.476 44.58 37.568 44.572 37.664C44.572 37.76 44.56 37.848 44.536 37.928C44.136 37.976 43.708 38.016 43.252 38.048C42.796 38.088 42.332 38.108 41.86 38.108C41.044 38.108 40.416 37.904 39.976 37.496C39.536 37.08 39.316 36.46 39.316 35.636V24.056ZM44.704 26.132C44.784 26.428 44.824 26.728 44.824 27.032C44.824 27.368 44.784 27.676 44.704 27.956L40.78 27.908L37.552 27.956C37.488 27.66 37.456 27.352 37.456 27.032C37.456 26.744 37.488 26.444 37.552 26.132L40.816 26.18L44.704 26.132ZM49.7221 38C49.3861 38.064 48.9741 38.096 48.4861 38.096C48.0461 38.096 47.6461 38.064 47.2861 38V20.504L47.4421 20.348H48.3781C48.8981 20.348 49.2501 20.476 49.4341 20.732C49.6261 20.98 49.7221 21.38 49.7221 21.932V38ZM56.6941 35.468C56.6941 35.884 56.7221 36.28 56.7781 36.656C56.8341 37.024 56.9381 37.348 57.0901 37.628C56.9061 37.78 56.6741 37.904 56.3941 38C56.1221 38.104 55.8341 38.156 55.5301 38.156C55.0501 38.156 54.7101 38.024 54.5101 37.76C54.3181 37.496 54.2221 37.104 54.2221 36.584V30.488C54.2221 29.688 54.1181 29.104 53.9101 28.736C53.7021 28.368 53.3061 28.184 52.7221 28.184C52.3221 28.184 51.8861 28.284 51.4141 28.484C50.9501 28.676 50.5101 28.948 50.0941 29.3C49.6781 29.652 49.3421 30.068 49.0861 30.548V28.16C49.6221 27.544 50.2781 27.024 51.0541 26.6C51.8301 26.168 52.6501 25.952 53.5141 25.952C54.2661 25.952 54.8741 26.128 55.3381 26.48C55.8021 26.824 56.1421 27.296 56.3581 27.896C56.5821 28.488 56.6941 29.152 56.6941 29.888V35.468ZM61.0848 32.864V31.064H66.9048V30.752C66.9048 30.192 66.8248 29.68 66.6648 29.216C66.5128 28.744 66.2608 28.368 65.9088 28.088C65.5648 27.808 65.1048 27.668 64.5287 27.668C63.7128 27.668 63.1008 28.012 62.6928 28.7C62.2848 29.388 62.0808 30.336 62.0808 31.544V32.3C62.0808 33.052 62.1568 33.732 62.3088 34.34C62.4688 34.94 62.7488 35.416 63.1488 35.768C63.5488 36.112 64.1168 36.284 64.8528 36.284C65.4528 36.284 66.0328 36.2 66.5928 36.032C67.1528 35.856 67.6848 35.636 68.1888 35.372C68.3968 35.572 68.5688 35.824 68.7048 36.128C68.8488 36.424 68.9368 36.7 68.9688 36.956C68.4008 37.372 67.7168 37.704 66.9168 37.952C66.1248 38.192 65.3088 38.312 64.4688 38.312C63.5168 38.312 62.7208 38.144 62.0808 37.808C61.4488 37.472 60.9448 37.012 60.5688 36.428C60.2008 35.836 59.9328 35.168 59.7648 34.424C59.6048 33.68 59.5248 32.904 59.5248 32.096C59.5248 30.904 59.7088 29.836 60.0768 28.892C60.4528 27.948 61.0128 27.204 61.7568 26.66C62.5008 26.116 63.4248 25.844 64.5287 25.844C65.5688 25.844 66.4408 26.072 67.1448 26.528C67.8568 26.984 68.3928 27.6 68.7528 28.376C69.1128 29.144 69.2928 30.004 69.2928 30.956C69.2928 31.34 69.2768 31.672 69.2448 31.952C69.2208 32.224 69.1768 32.528 69.1128 32.864H61.0848Z" fill="white"/>
<path d="M57.72 36.74C57.952 36.636 58.188 36.56 58.428 36.512C58.668 36.464 58.904 36.44 59.136 36.44C59.56 36.44 59.872 36.54 60.072 36.74C60.272 36.94 60.416 37.3 60.504 37.82L62.016 45.956C62.088 46.372 62.172 46.872 62.268 47.456C62.364 48.032 62.46 48.608 62.556 49.184C62.652 49.752 62.728 50.228 62.784 50.612C62.8 50.748 62.82 50.828 62.844 50.852C62.876 50.876 62.924 50.888 62.988 50.888L65.604 36.956C65.852 36.908 66.132 36.876 66.444 36.86C66.756 36.844 67.028 36.836 67.26 36.836C67.516 36.836 67.8 36.844 68.112 36.86C68.432 36.876 68.696 36.908 68.904 36.956L71.304 50.612C71.328 50.74 71.356 50.82 71.388 50.852C71.42 50.876 71.468 50.888 71.532 50.888C71.604 50.392 71.688 49.84 71.784 49.232C71.888 48.624 71.992 48.028 72.096 47.444C72.208 46.86 72.304 46.356 72.384 45.932L74.232 36.608C74.408 36.568 74.596 36.544 74.796 36.536C75.004 36.52 75.2 36.512 75.384 36.512C75.584 36.512 75.792 36.524 76.008 36.548C76.224 36.572 76.424 36.608 76.608 36.656L76.74 36.836L73.296 52.976C72.992 53.024 72.616 53.056 72.168 53.072C71.728 53.096 71.344 53.108 71.016 53.108C70.632 53.108 70.296 53.04 70.008 52.904C69.72 52.76 69.532 52.416 69.444 51.872L68.28 45.44C68.152 44.648 67.996 43.72 67.812 42.656C67.636 41.584 67.468 40.536 67.308 39.512H67.152C66.984 40.536 66.804 41.58 66.612 42.644C66.428 43.708 66.256 44.64 66.096 45.44L64.62 52.988C64.316 53.028 63.956 53.056 63.54 53.072C63.132 53.096 62.764 53.108 62.436 53.108C62.036 53.108 61.68 53.036 61.368 52.892C61.056 52.748 60.844 52.4 60.732 51.848L57.72 36.74ZM79.0926 47.864V46.064H84.9126V45.752C84.9126 45.192 84.8326 44.68 84.6726 44.216C84.5206 43.744 84.2686 43.368 83.9166 43.088C83.5726 42.808 83.1126 42.668 82.5366 42.668C81.7206 42.668 81.1086 43.012 80.7006 43.7C80.2926 44.388 80.0886 45.336 80.0886 46.544V47.3C80.0886 48.052 80.1646 48.732 80.3166 49.34C80.4766 49.94 80.7566 50.416 81.1566 50.768C81.5566 51.112 82.1246 51.284 82.8606 51.284C83.4606 51.284 84.0406 51.2 84.6006 51.032C85.1606 50.856 85.6926 50.636 86.1966 50.372C86.4046 50.572 86.5766 50.824 86.7126 51.128C86.8566 51.424 86.9446 51.7 86.9766 51.956C86.4086 52.372 85.7246 52.704 84.9246 52.952C84.1326 53.192 83.3166 53.312 82.4766 53.312C81.5246 53.312 80.7286 53.144 80.0886 52.808C79.4566 52.472 78.9526 52.012 78.5766 51.428C78.2086 50.836 77.9406 50.168 77.7726 49.424C77.6126 48.68 77.5326 47.904 77.5326 47.096C77.5326 45.904 77.7166 44.836 78.0846 43.892C78.4606 42.948 79.0206 42.204 79.7646 41.66C80.5086 41.116 81.4326 40.844 82.5366 40.844C83.5766 40.844 84.4486 41.072 85.1526 41.528C85.8646 41.984 86.4006 42.6 86.7606 43.376C87.1206 44.144 87.3006 45.004 87.3006 45.956C87.3006 46.34 87.2846 46.672 87.2526 46.952C87.2286 47.224 87.1846 47.528 87.1206 47.864H79.0926ZM89.544 49.784C89.544 48.864 89.744 48.112 90.144 47.528C90.552 46.936 91.1 46.5 91.788 46.22C92.484 45.94 93.268 45.8 94.14 45.8C94.58 45.8 95.084 45.82 95.652 45.86C96.22 45.9 96.748 45.976 97.236 46.088V47.756C96.804 47.652 96.32 47.588 95.784 47.564C95.256 47.532 94.76 47.516 94.296 47.516C93.568 47.516 93.004 47.704 92.604 48.08C92.204 48.448 92.004 48.956 92.004 49.604C92.004 50.092 92.144 50.508 92.424 50.852C92.704 51.188 93.104 51.356 93.624 51.356C94.208 51.356 94.824 51.152 95.472 50.744C96.12 50.336 96.668 49.736 97.116 48.944L97.5 50.84C97.212 51.176 96.856 51.536 96.432 51.92C96.008 52.304 95.516 52.632 94.956 52.904C94.404 53.176 93.776 53.312 93.072 53.312C92.28 53.312 91.62 53.136 91.092 52.784C90.572 52.432 90.184 51.988 89.928 51.452C89.672 50.908 89.544 50.352 89.544 49.784ZM99.552 51.896C99.496 52.12 99.376 52.36 99.192 52.616C99.016 52.864 98.828 53.052 98.628 53.18C98.124 53.076 97.716 52.888 97.404 52.616C97.092 52.344 96.86 52.02 96.708 51.644C96.556 51.26 96.464 50.856 96.432 50.432V45.02C96.432 44.268 96.26 43.728 95.916 43.4C95.58 43.064 95.1 42.896 94.476 42.896C93.876 42.896 93.256 42.988 92.616 43.172C91.976 43.356 91.336 43.572 90.696 43.82C90.504 43.62 90.34 43.348 90.204 43.004C90.076 42.652 90.004 42.316 89.988 41.996C90.436 41.804 90.94 41.624 91.5 41.456C92.068 41.288 92.652 41.156 93.252 41.06C93.852 40.956 94.424 40.904 94.968 40.904C95.76 40.904 96.448 41.048 97.032 41.336C97.616 41.624 98.068 42.064 98.388 42.656C98.716 43.248 98.88 44.004 98.88 44.924V49.844C98.88 50.292 98.924 50.688 99.012 51.032C99.1 51.368 99.28 51.656 99.552 51.896ZM102.722 39.056C102.722 38.504 102.814 38.104 102.998 37.856C103.182 37.6 103.534 37.472 104.054 37.472H104.99L105.146 37.64V50.096C105.146 50.416 105.222 50.672 105.374 50.864C105.526 51.048 105.782 51.14 106.142 51.14H107.798C107.926 51.516 107.99 51.932 107.99 52.388C107.99 52.476 107.986 52.568 107.978 52.664C107.978 52.76 107.966 52.848 107.942 52.928C107.542 52.976 107.114 53.016 106.658 53.048C106.202 53.088 105.738 53.108 105.266 53.108C104.45 53.108 103.822 52.904 103.382 52.496C102.942 52.08 102.722 51.46 102.722 50.636V39.056ZM108.11 41.132C108.19 41.428 108.23 41.728 108.23 42.032C108.23 42.368 108.19 42.676 108.11 42.956L104.186 42.908L100.958 42.956C100.894 42.66 100.862 42.352 100.862 42.032C100.862 41.744 100.894 41.444 100.958 41.132L104.222 41.18L108.11 41.132ZM113.128 53C112.792 53.064 112.38 53.096 111.892 53.096C111.452 53.096 111.052 53.064 110.692 53V35.504L110.848 35.348H111.784C112.304 35.348 112.656 35.476 112.84 35.732C113.032 35.98 113.128 36.38 113.128 36.932V53ZM120.1 50.468C120.1 50.884 120.128 51.28 120.184 51.656C120.24 52.024 120.344 52.348 120.496 52.628C120.312 52.78 120.08 52.904 119.8 53C119.528 53.104 119.24 53.156 118.936 53.156C118.456 53.156 118.116 53.024 117.916 52.76C117.724 52.496 117.628 52.104 117.628 51.584V45.488C117.628 44.688 117.524 44.104 117.316 43.736C117.108 43.368 116.712 43.184 116.128 43.184C115.728 43.184 115.292 43.284 114.82 43.484C114.356 43.676 113.916 43.948 113.5 44.3C113.084 44.652 112.748 45.068 112.492 45.548V43.16C113.028 42.544 113.684 42.024 114.46 41.6C115.236 41.168 116.056 40.952 116.92 40.952C117.672 40.952 118.28 41.128 118.744 41.48C119.208 41.824 119.548 42.296 119.764 42.896C119.988 43.488 120.1 44.152 120.1 44.888V50.468ZM124.491 47.864V46.064H130.311V45.752C130.311 45.192 130.231 44.68 130.071 44.216C129.919 43.744 129.667 43.368 129.315 43.088C128.971 42.808 128.511 42.668 127.935 42.668C127.119 42.668 126.507 43.012 126.099 43.7C125.691 44.388 125.487 45.336 125.487 46.544V47.3C125.487 48.052 125.563 48.732 125.715 49.34C125.875 49.94 126.155 50.416 126.555 50.768C126.955 51.112 127.523 51.284 128.259 51.284C128.859 51.284 129.439 51.2 129.999 51.032C130.559 50.856 131.091 50.636 131.595 50.372C131.803 50.572 131.975 50.824 132.111 51.128C132.255 51.424 132.343 51.7 132.375 51.956C131.807 52.372 131.123 52.704 130.323 52.952C129.531 53.192 128.715 53.312 127.875 53.312C126.923 53.312 126.127 53.144 125.487 52.808C124.855 52.472 124.351 52.012 123.975 51.428C123.607 50.836 123.339 50.168 123.171 49.424C123.011 48.68 122.931 47.904 122.931 47.096C122.931 45.904 123.115 44.836 123.483 43.892C123.859 42.948 124.419 42.204 125.163 41.66C125.907 41.116 126.831 40.844 127.935 40.844C128.975 40.844 129.847 41.072 130.551 41.528C131.263 41.984 131.799 42.6 132.159 43.376C132.519 44.144 132.699 45.004 132.699 45.956C132.699 46.34 132.683 46.672 132.651 46.952C132.627 47.224 132.583 47.528 132.519 47.864H124.491ZM142.622 41.12C142.622 41.456 142.574 41.848 142.478 42.296C142.382 42.736 142.226 43.124 142.01 43.46C141.858 43.42 141.698 43.396 141.53 43.388C141.362 43.372 141.198 43.36 141.038 43.352C140.582 43.352 140.182 43.448 139.838 43.64C139.502 43.824 139.214 44.068 138.974 44.372C138.742 44.668 138.542 44.996 138.374 45.356C138.206 45.716 138.07 46.068 137.966 46.412L137.606 45.956C137.622 45.388 137.698 44.816 137.834 44.24C137.97 43.656 138.178 43.12 138.458 42.632C138.746 42.136 139.126 41.74 139.598 41.444C140.078 41.14 140.658 40.988 141.338 40.988C141.554 40.988 141.762 41 141.962 41.024C142.17 41.04 142.39 41.072 142.622 41.12ZM135.098 42.296C135.154 42.08 135.27 41.84 135.446 41.576C135.622 41.304 135.806 41.104 135.998 40.976C136.798 41.152 137.394 41.556 137.786 42.188C138.178 42.812 138.402 43.6 138.458 44.552V53C138.29 53.032 138.098 53.056 137.882 53.072C137.666 53.088 137.446 53.096 137.222 53.096C136.998 53.096 136.778 53.088 136.562 53.072C136.346 53.056 136.154 53.032 135.986 53V44.768C135.986 44.128 135.89 43.604 135.698 43.196C135.506 42.788 135.306 42.488 135.098 42.296Z" fill="white"/>
</svg>
